# xmcd
#
# Track frame offsets:
# 150
# 18740
# 34170
# 52138
# 63785
# 76383
# 90326
# 106226
# 116889
# 140595
# 155016
# 172306
# 184390
# 200616
# 214835
# 231207
# 248102
# 261454
#
# Disc length: 3722 seconds
#
#
# Revision: 0
# Processed by: cddbd v1.5.2PL0 Copyright (c) Steve Scherf et al.
# Submitted via: FreeRIP 2.942 
#
DISCID=110e8812
DTITLE=CEJKA BAND - ROCK Patent na slecny
DYEAR=2007
DGENRE=Pop
TTITLE0=Toulavá
TTITLE1=Galeje
TTITLE2=Vrakoviste
TTITLE3=Cerný brýle
TTITLE4=Svetlo
TTITLE5=Neztrácej cas
TTITLE6=To nevadí
TTITLE7=První vejplata
TTITLE8=Patent na slecny
TTITLE9=Ostrov divokých zen
TTITLE10=Nedele mi nejdou
TTITLE11=Soused
TTITLE12=Proc
TTITLE13=Musí eskadra
TTITLE14=Zeleznicní most
TTITLE15=Oci za to nemohou
TTITLE16=Sama doma
TTITLE17=Psaní
EXTD=
EXTT0=
EXTT1=
EXTT2=
EXTT3=
EXTT4=
EXTT5=
EXTT6=
EXTT7=
EXTT8=
EXTT9=
EXTT10=
EXTT11=
EXTT12=
EXTT13=
EXTT14=
EXTT15=
EXTT16=
EXTT17=
PLAYORDER=
